<svg id="Ebene_1" data-name="Ebene 1" xmlns="http://www.w3.org/2000/svg" viewBox="78.91999816894531 36.86927795410156 52.11048889160156 36.260719299316406"><defs><style>.cls-1{fill:#00417b;}</style></defs><title>Schweizer-Paraplegiker-Gruppe-2</title><path class="cls-1" d="M116.48,36.87l-6.44.05,0,5.15,6.44,0c7.77-.06,9.08,5.08,9.1,7.67,0,5.16-3.86,7.75-9,7.78l-5.46.05.07,10.3-5.46,0-.08-10.3-5.47,0,.12,15.45,16.4-.12-.08-10.31c9-.06,14.47-5.25,14.41-13S125.52,36.8,116.48,36.87Z"></path><path class="cls-1" d="M94.73,52.49l-.08-10.31,5.47,0,.07,10.31,15.54-.12c1.7,0,3-.88,3-2.6,0-.85-.44-2.57-3-2.55l-10.07.07L105.54,37l-16.4.12.08,10.31-10.3.07L79,62.91l10.3-.08.08,10.3,5.47,0-.12-15.45-10.61.08,0-5.15Z"></path></svg>
