<?xml version="1.0" standalone="no"?>
<!DOCTYPE svg PUBLIC "-//W3C//DTD SVG 20010904//EN"
 "http://www.w3.org/TR/2001/REC-SVG-20010904/DTD/svg10.dtd">
<svg version="1.0" xmlns="http://www.w3.org/2000/svg"
 width="1080.000000pt" height="1080.000000pt" viewBox="0 0 1080.000000 1080.000000"
 preserveAspectRatio="xMidYMid meet">

<g transform="translate(0.000000,1080.000000) scale(0.100000,-0.100000)"
fill="#000000" stroke="none">
<path d="M8860 10035 l0 -165 -160 0 -160 0 0 -245 0 -245 160 0 160 0 0 -165
0 -165 90 0 90 0 0 250 0 250 -170 0 -170 0 0 75 0 75 170 0 170 0 0 165 0
165 85 0 85 0 2 -162 3 -163 230 -3 c256 -3 304 1 337 27 32 27 32 96 -1 122
-21 17 -42 19 -207 19 l-184 0 0 165 0 165 -265 0 -265 0 0 -165z"/>
<path d="M9532 10118 l3 -83 160 -5 c138 -5 166 -8 200 -27 86 -46 125 -114
125 -218 0 -74 -20 -123 -67 -166 -58 -55 -88 -63 -243 -69 l-145 -5 -3 -162
-2 -163 -85 0 -85 0 0 165 0 166 -87 -3 -88 -3 -3 -247 -2 -248 265 0 265 0 0
165 0 165 46 0 c56 0 154 24 208 52 65 33 141 112 172 181 27 57 29 71 29 177
0 104 -3 121 -27 172 -35 74 -107 151 -172 183 -90 43 -158 55 -319 55 l-148
0 3 -82z"/>
<path d="M3723 7892 c-134 -47 -213 -165 -213 -319 l0 -63 -352 0 c-212 0
-368 -4 -390 -10 -50 -14 -97 -55 -119 -105 -17 -37 -19 -80 -19 -651 0 -429
3 -621 11 -645 15 -43 65 -97 106 -115 26 -11 109 -14 398 -14 l365 0 0 -70
c0 -102 29 -171 99 -241 105 -103 -84 -94 1886 -94 l1720 0 62 29 c120 55 183
153 191 294 l5 82 364 0 c287 0 370 3 396 14 41 18 91 72 106 115 8 24 11 216
11 645 0 571 -2 614 -19 651 -22 50 -69 91 -119 105 -22 6 -177 10 -388 10
l-351 0 -5 83 c-8 133 -75 239 -186 290 l-47 22 -1730 2 c-1640 2 -1733 2
-1782 -15z m3427 -1152 l0 -850 -1660 0 -1660 0 0 850 0 850 1660 0 1660 0 0
-850z m-3680 0 l0 -430 -250 0 -250 0 0 430 0 430 250 0 250 0 0 -430z m4540
0 l0 -430 -250 0 -250 0 0 430 0 430 250 0 250 0 0 -430z"/>
<path d="M4572 7103 c-69 -21 -152 -95 -180 -160 -34 -80 -37 -133 -13 -212
49 -162 212 -245 381 -195 71 21 159 107 183 178 81 237 -134 462 -371 389z"/>
<path d="M6192 7103 c-71 -21 -151 -94 -183 -165 -31 -70 -31 -172 -1 -240 62
-139 219 -208 372 -162 71 21 159 107 183 178 81 237 -134 462 -371 389z"/>
<path d="M4368 5261 c-77 -25 -118 -52 -177 -117 -91 -99 -89 -79 -95 -871
l-5 -682 -37 -73 c-48 -95 -107 -278 -130 -403 -28 -151 -26 -432 4 -582 86
-430 337 -799 702 -1036 399 -258 899 -321 1357 -172 553 181 963 658 1069
1240 25 137 25 446 0 598 -10 60 -16 110 -14 112 2 1 155 5 341 7 l338 5 9
-22 c5 -13 7 -31 5 -41 -3 -11 -50 -253 -105 -539 -55 -286 -105 -543 -111
-571 -9 -49 -11 -51 -65 -74 -122 -50 -222 -182 -247 -323 -30 -179 74 -366
250 -450 62 -29 77 -32 163 -32 113 0 173 18 254 76 185 132 231 397 101 585
-32 46 -109 117 -136 126 -6 2 42 271 106 598 127 648 127 650 84 767 -27 72
-112 163 -181 194 l-53 24 -426 -3 -427 -4 -52 99 -52 98 3 595 c2 588 2 596
-19 650 -33 84 -99 152 -190 197 l-76 38 -1065 2 c-1007 2 -1069 1 -1123 -16z
m2127 -313 l25 -11 0 -400 0 -399 -27 18 c-266 177 -591 264 -984 264 -184 0
-262 -9 -410 -46 -224 -56 -468 -179 -621 -313 -25 -23 -49 -41 -52 -41 -3 0
-6 204 -6 454 l0 455 22 15 c20 14 134 16 1025 16 739 0 1009 -3 1028 -12z
m-743 -863 c303 -40 505 -130 679 -304 221 -221 322 -512 322 -931 0 -132 -4
-186 -22 -268 -55 -262 -175 -478 -368 -662 -243 -233 -536 -350 -873 -350
-268 0 -487 66 -709 214 -515 343 -706 1030 -441 1584 69 144 129 231 237 343
195 201 434 329 697 373 110 19 340 19 478 1z"/>
</g>
</svg>
