<?xml version="1.0" standalone="no"?>
<!DOCTYPE svg PUBLIC "-//W3C//DTD SVG 20010904//EN"
 "http://www.w3.org/TR/2001/REC-SVG-20010904/DTD/svg10.dtd">
<svg version="1.0" xmlns="http://www.w3.org/2000/svg"
 width="1112.000000pt" height="1081.000000pt" viewBox="0 0 1112.000000 1081.000000"
 preserveAspectRatio="xMidYMid meet">

<g transform="translate(0.000000,1081.000000) scale(0.100000,-0.100000)"
fill="#000000" stroke="none">
<path d="M8090 10155 l0 -295 -290 0 -290 0 0 -435 0 -435 290 0 290 0 0 -295
0 -295 160 0 160 0 0 445 0 445 -305 0 -305 0 0 135 0 135 305 0 305 0 0 295
0 295 150 0 150 0 0 -281 c0 -230 3 -283 14 -295 12 -12 87 -14 455 -14 243 0
441 4 441 9 0 4 23 11 51 14 57 7 89 34 89 74 0 12 5 23 10 23 6 0 10 18 10
40 0 22 -4 40 -10 40 -5 0 -10 11 -10 23 0 13 -9 35 -21 48 l-21 24 -344 3
-344 3 0 294 0 295 -470 0 -470 0 0 -295z"/>
<path d="M9280 10314 c0 -104 3 -139 14 -150 12 -11 62 -14 270 -14 164 0 256
-4 256 -10 0 -5 16 -10 35 -10 19 0 35 -4 35 -10 0 -5 16 -12 35 -16 19 -3 35
-10 35 -15 0 -5 9 -9 20 -9 11 0 20 -4 20 -10 0 -8 10 -19 62 -67 26 -24 38
-42 38 -58 0 -8 5 -15 10 -15 6 0 10 -7 10 -15 0 -8 5 -15 10 -15 6 0 10 -11
10 -25 0 -14 5 -25 10 -25 6 0 10 -52 10 -135 0 -83 -4 -135 -10 -135 -5 0
-10 -9 -10 -20 0 -11 -4 -20 -10 -20 -5 0 -10 -7 -10 -15 0 -8 -4 -15 -10 -15
-5 0 -10 -7 -10 -15 0 -16 -12 -34 -38 -58 -52 -48 -62 -59 -62 -67 0 -6 -9
-10 -20 -10 -11 0 -20 -4 -20 -9 0 -5 -16 -12 -35 -15 -19 -4 -35 -11 -35 -16
0 -6 -16 -10 -35 -10 -19 0 -35 -4 -35 -10 0 -6 -85 -10 -234 -10 -204 0 -235
-2 -240 -16 -3 -9 -6 -141 -6 -295 l0 -279 -155 0 -155 0 0 295 0 295 -146 0
c-113 0 -149 -3 -160 -14 -12 -12 -14 -85 -14 -445 l0 -431 475 0 475 0 0 295
0 295 95 0 c52 0 95 4 95 9 0 5 34 12 75 16 41 4 75 11 75 16 0 5 11 9 25 9
14 0 25 5 25 10 0 6 7 10 15 10 8 0 15 4 15 9 0 5 18 12 40 16 26 4 41 13 45
26 4 10 13 19 21 19 19 0 184 166 184 185 0 8 5 15 10 15 6 0 10 7 10 15 0 8
4 15 9 15 5 0 12 16 15 35 4 19 11 35 16 35 6 0 10 14 10 30 0 17 5 30 10 30
6 0 10 16 10 35 0 19 5 35 10 35 6 0 10 60 10 160 0 100 -4 160 -10 160 -5 0
-10 16 -10 35 0 19 -4 35 -10 35 -5 0 -10 14 -10 30 0 17 -4 30 -10 30 -5 0
-12 16 -16 35 -3 19 -10 35 -15 35 -5 0 -9 6 -9 13 0 7 -9 19 -20 27 -11 8
-20 20 -20 27 0 18 -146 163 -164 163 -8 0 -17 9 -21 19 -4 13 -19 22 -45 26
-22 4 -40 11 -40 16 0 5 -11 9 -25 9 -14 0 -25 5 -25 10 0 6 -11 10 -25 10
-14 0 -25 4 -25 9 0 6 -31 13 -70 17 -38 3 -70 11 -70 15 0 5 -126 9 -280 9
l-280 0 0 -136z"/>
<path d="M3613 7072 c-134 -47 -213 -165 -213 -319 l0 -63 -352 0 c-212 0
-368 -4 -390 -10 -50 -14 -97 -55 -119 -105 -17 -37 -19 -80 -19 -651 0 -429
3 -621 11 -645 15 -43 65 -97 106 -115 26 -11 109 -14 398 -14 l365 0 0 -70
c0 -102 29 -171 99 -241 105 -103 -84 -94 1886 -94 l1720 0 62 29 c120 55 183
153 191 294 l5 82 364 0 c287 0 370 3 396 14 41 18 91 72 106 115 8 24 11 216
11 645 0 571 -2 614 -19 651 -22 50 -69 91 -119 105 -22 6 -177 10 -388 10
l-351 0 -5 83 c-8 133 -75 239 -186 290 l-47 22 -1730 2 c-1640 2 -1733 2
-1782 -15z m3427 -1152 l0 -850 -1660 0 -1660 0 0 850 0 850 1660 0 1660 0 0
-850z m-3680 0 l0 -430 -250 0 -250 0 0 430 0 430 250 0 250 0 0 -430z m4540
0 l0 -430 -250 0 -250 0 0 430 0 430 250 0 250 0 0 -430z"/>
<path d="M4462 6283 c-69 -21 -152 -95 -180 -160 -34 -80 -37 -133 -13 -212
49 -162 212 -245 381 -195 71 21 159 107 183 178 81 237 -134 462 -371 389z"/>
<path d="M6082 6283 c-71 -21 -151 -94 -183 -165 -31 -70 -31 -172 -1 -240 62
-139 219 -208 372 -162 71 21 159 107 183 178 81 237 -134 462 -371 389z"/>
<path d="M4258 4441 c-77 -25 -118 -52 -177 -117 -91 -99 -89 -79 -95 -871
l-5 -682 -37 -73 c-48 -95 -107 -278 -130 -403 -28 -151 -26 -432 4 -582 86
-430 337 -799 702 -1036 399 -258 899 -321 1357 -172 553 181 963 658 1069
1240 25 137 25 446 0 598 -10 60 -16 110 -14 112 2 1 155 5 341 7 l338 5 9
-22 c5 -13 7 -31 5 -41 -3 -11 -50 -253 -105 -539 -55 -286 -105 -543 -111
-571 -9 -49 -11 -51 -65 -74 -122 -50 -222 -182 -247 -323 -30 -179 74 -366
250 -450 62 -29 77 -32 163 -32 113 0 173 18 254 76 185 132 231 397 101 585
-32 46 -109 117 -136 126 -6 2 42 271 106 598 127 648 127 650 84 767 -27 72
-112 163 -181 194 l-53 24 -426 -3 -427 -4 -52 99 -52 98 3 595 c2 588 2 596
-19 650 -33 84 -99 152 -190 197 l-76 38 -1065 2 c-1007 2 -1069 1 -1123 -16z
m2127 -313 l25 -11 0 -400 0 -399 -27 18 c-266 177 -591 264 -984 264 -184 0
-262 -9 -410 -46 -224 -56 -468 -179 -621 -313 -25 -23 -49 -41 -52 -41 -3 0
-6 204 -6 454 l0 455 22 15 c20 14 134 16 1025 16 739 0 1009 -3 1028 -12z
m-743 -863 c303 -40 505 -130 679 -304 221 -221 322 -512 322 -931 0 -132 -4
-186 -22 -268 -55 -262 -175 -478 -368 -662 -243 -233 -536 -350 -873 -350
-268 0 -487 66 -709 214 -515 343 -706 1030 -441 1584 69 144 129 231 237 343
195 201 434 329 697 373 110 19 340 19 478 1z"/>
</g>
</svg>
